<svg id="Layer_1" data-name="Layer 1" xmlns="http://www.w3.org/2000/svg" viewBox="0 0 573.63 735.99"><defs><style>.cls-1{fill:#fff;opacity:0.72;}.cls-2{fill:#512b80;}.cls-3{fill:#75cabd;}.cls-4{fill:#26b6ea;}.cls-5{fill:#2dbaec;}.cls-6{fill:#ebf7fb;}.cls-7{fill:#f16a88;}.cls-8{fill:#f16988;}.cls-11,.cls-9{fill:#fbcf7e;}.cls-10{fill:#faebf3;}.cls-11{stroke:#512b80;stroke-miterlimit:10;stroke-width:3px;}</style></defs><title>4 - Logo - White bckgrd -- SVG</title><path class="cls-1" d="M690.49,168.42a86.73,86.73,0,0,0-29-4.86H335.26a86.75,86.75,0,0,0-29.05,4.86c-70,24.78-69.21,74.34-69.19,74.84V575.51c0,2,0,4,.08,5.92,1.61,55.66,28.31,108.29,79.36,156.43,24.18,22.8,51.32,42.95,74.68,59.65,6,4.33,12,8.89,17.74,13.3C428.71,826,447.44,840.37,470.2,846a88.66,88.66,0,0,0,21.18,2.6c2.34,0,4.67-.1,7-.28,2.31.18,4.63.28,7,.28a88.74,88.74,0,0,0,21.19-2.6c22.76-5.62,41.48-20,61.31-35.18,5.76-4.41,11.71-9,17.75-13.3,23.36-16.7,50.49-36.85,74.68-59.65,51-48.14,77.75-100.77,79.35-156.43.06-2,.09-3.95.09-5.92V243.26C759.71,242.76,760.54,193.2,690.49,168.42Z" transform="translate(-211.54 -138.08)"/><path class="cls-2" d="M699,144.4a112,112,0,0,0-37.54-6.32H335.26a112,112,0,0,0-37.54,6.32c-85.44,30.22-86.27,93.9-86.18,99.42V575.51q0,3.33.09,6.66c1.81,62.66,31.19,121.27,87.35,174.23,25.29,23.84,53.29,44.64,77.34,61.84,5.69,4.08,11.47,8.5,17.06,12.79,21,16.12,42.78,32.8,70.71,39.7a113.82,113.82,0,0,0,27.29,3.34c2.35,0,4.67-.09,7-.23,2.31.14,4.63.23,7,.23a113.9,113.9,0,0,0,27.3-3.34c27.92-6.9,49.67-23.58,70.71-39.7,5.59-4.29,11.36-8.71,17.06-12.79,24.05-17.2,52.05-38,77.34-61.84,56.15-53,85.54-111.57,87.35-174.23q.09-3.33.09-6.66V243.82C785.26,238.3,784.43,174.62,699,144.4Zm60.7,98.86V575.51c0,2,0,4-.09,5.92-1.6,55.66-28.3,108.29-79.35,156.43-24.19,22.8-51.32,42.95-74.68,59.65-6,4.33-12,8.89-17.75,13.3C568,826,549.27,840.37,526.51,846a88.74,88.74,0,0,1-21.19,2.6c-2.34,0-4.66-.1-7-.28-2.3.18-4.63.28-7,.28A88.66,88.66,0,0,1,470.2,846c-22.76-5.62-41.49-20-61.32-35.18-5.75-4.41-11.7-9-17.74-13.3-23.36-16.7-50.5-36.85-74.68-59.65-51-48.14-77.75-100.77-79.36-156.43,0-2-.08-3.95-.08-5.92V243.26c0-.5-.85-50.06,69.19-74.84a86.75,86.75,0,0,1,29.05-4.86H661.45a86.73,86.73,0,0,1,29,4.86C760.54,193.2,759.71,242.76,759.69,243.26Z" transform="translate(-211.54 -138.08)"/><path class="cls-2" d="M476,478.54s3.25-44-37.47-66.45a137,137,0,0,1-20.71-13.83c-16.17-13.21-46.92-36.34-67.7-39.74,0,0,42.14-89.62,117.88-92.29,0,0,9.74,74.82,13.34,86.82l15.2.93,4.8.27,2.4,4.53s-24.27,1.93-27.2,1.9-10.4,3.7-14.27,4.77S446.4,374.52,444,376.38,429.86,390,429.86,390s-4.53,6.13-2.93,9.07,4.53,3.53,9.6,1.4c0,0,7.51-10.84,12.18-13.1s14.6-20.19,60.62-13c0,0,31.49,3.48,46.15,46.29,0,0-9-1.21-48,25.87a107.08,107.08,0,0,0-22.19,20.58Z" transform="translate(-211.54 -138.08)"/><path class="cls-2" d="M289,697a24.46,24.46,0,0,1,19.88-14.24c2-16.48,16.56-28.42,31.06-36.51s30.67-14.66,40.91-27.73c-22.08-19.65-44.61-39.85-58.7-65.84s-18.31-59.34-3-84.65c3.57-5.9,8.18-11.47,9.43-18.25,1-5.17-.19-10.46-1-15.65a145.83,145.83,0,0,1,1.28-54,54.28,54.28,0,0,1,4.17-13c2.16-4.31,5.22-8.09,8.25-11.83,21.35-26.34,41.62-54.8,70.69-73.28,31.58-20.08,71.82-26.24,108.58-22.28a186.65,186.65,0,0,1,28.82,5.39c54.76,14.8,102.67,53.29,128.91,103.56,11.66,22.33,19.11,46.56,26.5,70.63,1.65,5.36,3.31,10.94,2.44,16.47s-5.09,11-10.69,11.26c27.55,68,5.72,152.79-51.24,199,3.71,5.13,2.21,12.64-1.74,17.57s-9.81,7.9-15.48,10.71l-59.64,29.6c18.93,17.83,17.88,47.69,15.43,73.57-.47,5-1,10.08-3.12,14.59-2,4.23-5.36,7.67-8.86,10.79-34.39,30.72-90.26,34-128,7.45-12.15-8.54-22.3-19.58-34-28.77-18.42-14.51-40.21-24.09-59.64-37.24A193.77,193.77,0,0,1,289,697Z" transform="translate(-211.54 -138.08)"/><path class="cls-2" d="M502.6,857c-23.27,0-46-6.94-63.87-19.53-7.39-5.2-14-11.19-20.39-17-4.73-4.28-9.19-8.33-13.94-12.07-10.23-8.06-21.49-14.49-33.42-21.3-8.52-4.87-17.33-9.9-25.71-15.57a202.6,202.6,0,0,1-64-70.38l-2.07-3.79,1.73-4a33.21,33.21,0,0,1,20.51-18.17c4-14,15.48-26.3,34.2-36.74,3-1.67,6.06-3.27,9-4.83,8.67-4.55,17-8.92,23.56-14.68-19.56-17.54-40.39-37.42-53.82-62.17-13.54-25-21.4-62.62-2.83-93.4.89-1.47,1.84-2.92,2.79-4.38,2.51-3.84,4.88-7.46,5.51-10.91.56-3.05-.08-6.82-.76-10.81l-.31-1.82a153.55,153.55,0,0,1,1.35-57.29,62.82,62.82,0,0,1,4.91-15.12c2.6-5.19,6.15-9.57,9.28-13.44,3-3.72,6-7.48,9-11.25,18.49-23.24,37.61-47.27,63.8-63.92,25.51-16.22,57.39-24.79,92.19-24.79a205.77,205.77,0,0,1,22.05,1.19,195.17,195.17,0,0,1,30.18,5.64c56.89,15.38,107.14,55.75,134.42,108,12.06,23.12,19.71,48,27.11,72.12,1.74,5.69,3.92,12.77,2.71,20.42a23.84,23.84,0,0,1-8.24,14.54c11.32,32.74,12.58,69.76,3.45,105.22-9.3,36.14-28.84,68.49-55.31,91.8a25.11,25.11,0,0,1-5.4,20.45c-5.24,6.54-12.55,10.17-18.43,13.08l-49.65,24.65c14.93,22.49,12,53.66,10.3,71.47-.52,5.43-1.1,11.58-3.95,17.55s-7.31,10.33-10.93,13.57C558,847,530.64,857,502.6,857ZM299.17,697.12a185.13,185.13,0,0,0,56,59.88c7.83,5.3,16.34,10.16,24.58,14.86,12,6.83,24.33,13.9,35.58,22.76,5.23,4.12,10.13,8.56,14.87,12.86,6.27,5.68,12.19,11,18.7,15.62,15,10.52,34.06,16.32,53.74,16.32,23.77,0,46.85-8.43,63.32-23.14,2.54-2.26,5.33-5,6.77-8s1.92-7.46,2.31-11.63c2.29-24.15,3.38-51.19-12.7-66.33l-9.21-8.67,71-35.22c4.77-2.37,9.7-4.82,12.52-8.33,1.95-2.43,2.39-5.65,1.49-6.91l-4.89-6.74,6.47-5.25c53.68-43.6,74.59-124.81,48.63-188.91l-4.64-11.44,12.33-.65c.54,0,2.1-1.59,2.45-3.84.57-3.63-.81-8.15-2.15-12.51-7.16-23.34-14.57-47.46-25.89-69.14-25-48-71.17-85-123.4-99.14a178.87,178.87,0,0,0-27.47-5.14,188.87,188.87,0,0,0-20.17-1.08c-21.93,0-54.09,3.82-82.75,22-23.69,15.07-41.88,37.92-59.46,60-3,3.82-6.06,7.62-9.11,11.38-2.82,3.48-5.48,6.76-7.21,10.23a47,47,0,0,0-3.45,10.92,138.19,138.19,0,0,0-1.19,50.76l.29,1.73c.87,5.07,1.85,10.82.72,16.94-1.27,6.94-4.89,12.48-8.09,17.37-.83,1.27-1.67,2.55-2.45,3.84-14.73,24.41-8,55.22,3.24,75.91C343.4,573.4,365.41,593,386.7,611.92l6.17,5.5-5.1,6.51c-9.36,11.94-22.36,18.77-34.93,25.37-3,1.57-5.83,3.05-8.62,4.61-16.35,9.12-25.3,19.18-26.61,29.9l-.87,7.09-7.12.61A15.81,15.81,0,0,0,299.17,697.12Z" transform="translate(-211.54 -138.08)"/><path class="cls-3" d="M453.73,651.5s9.21,25.2,10,35.2c0,0,58.41,51.61,116.82,26.41-18.21-1.68-36.75-4.36-54.32-9.44-12.68-3.67-23.39-11.21-34.4-18.17A152.29,152.29,0,0,1,461.67,661,112.11,112.11,0,0,1,453.73,651.5Z" transform="translate(-211.54 -138.08)"/><path class="cls-4" d="M604,697.24c-1.86-.13-5.35,2-7.17,2.49A91.92,91.92,0,0,1,576.54,703c-24.35,1.27-48.34-6.2-69.2-18.45-37.5-22-65.74-55.41-75.74-98.09-3.74-16-4.23-33.5-14.81-47.09L332,450.8V438.53l88.55,76.28s13.87,4.8,18.13-5.87c0,0,3.87-20.67,2.67-36.67,0,0,4.8-22.47-10.6-33.74,0,0-67.41-50.68-84.21-62.28,0,0-8.61-.2-10,0l6.41-9.73a140.55,140.55,0,0,1,22.67,13.6s64,44.27,72.54,51.21,26.14,26.67,21.61,60.81l.4,7.33c.07,1.29-1.24,3.5-1.62,4.72a111.76,111.76,0,0,0-3.33,14.09c-3.22,18.79-2,38.23,1.73,56.85A156.81,156.81,0,0,0,463.79,600c6.45,17,17.5,32.2,30,45.24,14,14.55,29.83,23.35,47.79,32C541.62,677.24,580,695.64,604,697.24Z" transform="translate(-211.54 -138.08)"/><path class="cls-5" d="M336.25,386.25s2.66-4.8,9.33,0l52.81,38.41,26.67,18.4s9.87,7.2,10.4,18.94l-2.93,41.61s-2.4,7.2-9.07,4.26l-11.2-10.13s4.53-6.94,3.47-10.4c0,0,1.33-33.08,0-34.14,0,0-31.42-24.46-74.15-56.81l-5.33-.54Z" transform="translate(-211.54 -138.08)"/><path class="cls-3" d="M342.92,366.52s-2.18-10.55,11.42-7.09l64.05,43.09s36.28,23.21,44.28,38.14a59,59,0,0,1-2.53,58.81S457.85,460,448.6,443.1a19.37,19.37,0,0,0-5.54-6.3C428.7,426.21,350.37,369,342.92,366.52Z" transform="translate(-211.54 -138.08)"/><path class="cls-5" d="M697.7,456.55a9.52,9.52,0,0,0,4.53-2.55c4.19-4.33,2.41-12-2.09-16s-10.74-5.28-16.67-6.36C619.72,420,548.85,415.3,496.13,460.08c-23.77,20.19-34.77,57.64-34.58,88A132,132,0,0,0,494.5,634c28,31.5,69.64,47.71,111.15,54.85,6.74,1.16,13.74,2.11,20.36.38s12.82-6.72,14-13.47a234.47,234.47,0,0,1-107.15-41.56c-11.08-7.9-21.63-16.94-29-28.35-5.53-8.52-9.17-18.16-11.71-28-5.1-19.73-5.85-40.75-.67-60.45s16.51-38,32.78-50.23c25.78-19.4,60.38-21.88,92.6-20.18a456.25,456.25,0,0,1,69.06,9C689.68,456.78,694,457.49,697.7,456.55Z" transform="translate(-211.54 -138.08)"/><path class="cls-3" d="M696.15,459.09c3-.87,7.71-5.06,8.34-9.78-33.44-8.85-69.27-9.6-103.86-9.08-30.12.46-62.42,6.21-85,26.1-14.64,12.87-24.44,30.83-29.51,49.65-6.15,22.87-4.34,47.34,2.34,70.06,8.88,30.17,36.59,51,63.76,67,26.35,15.55,54.52,21.74,85.34,28.51,5.78-5.35,1.47-7.5-2.83-8.91-56.35-18.58-126.58-40.86-138.31-108.26a106.2,106.2,0,0,1,7.14-60.26c7.22-16.56,19-31.35,34.34-40.85,18.6-11.48,41.17-15.35,63-14.83A403.15,403.15,0,0,1,682,458.21c3.8.87,7.68,1.79,11.56,1.38A15.15,15.15,0,0,0,696.15,459.09Z" transform="translate(-211.54 -138.08)"/><path class="cls-3" d="M555.48,420.66l9.61-2.4c.74-.19-8-18.46-8.63-19.48a71.58,71.58,0,0,0-32.9-29.5c-14.86-6.81-32.62-9.4-48.81-6-12.38,2.61-23.37,8.83-32.69,17.26-1.49,1.35-16.57,14.72-14.06,16.63l5.6,4.26c-.84-.67,17.63-16.28,19.24-17.57,11.62-9.34,26.92-13.52,41.71-12.16,23.32,2.15,44.45,13,55.55,34.58C550.68,407.43,556.1,420.51,555.48,420.66Z" transform="translate(-211.54 -138.08)"/><polygon class="cls-5" points="255.6 130.36 268.4 129.36 282.83 215.77 269.21 216.57 255.6 130.36"/><path class="cls-5" d="M489.76,267.43l14.78,87.22s52,5.18,69.21,62h69.62s-8.81-90.81-58-129.21C585.36,287.44,532.79,260.23,489.76,267.43Z" transform="translate(-211.54 -138.08)"/><path class="cls-3" d="M643.37,416.65l33.47,4s-8.27-92.28-91.48-133.22C585.36,287.44,634.16,348.91,643.37,416.65Z" transform="translate(-211.54 -138.08)"/><path class="cls-6" d="M598.59,294.74S661.9,337,676.84,420.66l14.13,2.8S671,318.45,598.59,294.74Z" transform="translate(-211.54 -138.08)"/><path class="cls-3" d="M662.24,451.25,692,456.61S743.23,600,633.86,673.55c-1.89,1.27-27.22-6.68-29.83-7.69,15.2,5.82,30.87-12.2,33.25-21.73,2.18-8.72,7.93-16.6,10.63-25.46,2.82-9.29,5.57-18.62,7.47-28.14,4.56-22.8,1.6-47.45,9-69.82,2.24-6.79,6.77-13,7.29-20.31.55-7.7-1.69-15.57-3.07-23.09-1.49-8.12-42-30.45-50.29-33.53C616.07,443,664.94,451.67,662.24,451.25Z" transform="translate(-211.54 -138.08)"/><path class="cls-2" d="M667.24,459.89c-4.29-3.55-10.23-5.81-18-7.19-36.88-6.57-75.06-4-109.19,12.23-29.68,14.14-43.67,47.2-43.95,78.89a102.08,102.08,0,0,0,9.83,45.42c20.3,41.65,66.6,66.31,109.43,77,3.32.83,17.22-9.74,19.31-12.29,4.34-5.3,6.75-12.57,9-18.93,2.59-7.37,4.1-15.33,7.23-22.48,2.83-6.45,7.8-11.81,10.11-18.5,4.71-13.62-.85-28.72.88-42.74C664.75,528,690.54,479.18,667.24,459.89Z" transform="translate(-211.54 -138.08)"/><polygon class="cls-7" points="189.79 311.39 196.82 317.25 196.82 351.93 189.79 351.93 189.79 311.39"/><polygon class="cls-8" points="176.72 302.32 183.12 306.59 183.12 342.59 176.72 339.39 176.72 302.32"/><polygon class="cls-8" points="161.78 291.92 169.52 296.18 170.58 331.66 160.72 326.59 161.78 291.92"/><polygon class="cls-8" points="148.45 282.58 156.18 286.85 157.25 320.79 148.45 314.59 148.45 282.58"/><polygon class="cls-8" points="135.38 272.98 141.25 276.98 141.25 306.32 135.38 303.65 135.38 272.98"/><polygon class="cls-8" points="124.71 265.25 128.98 267.38 128.98 296.99 124.71 293.52 124.71 265.25"/><path class="cls-8" d="M344.74,473.87s63.79,69.61,67.79,73.61c0,0,.63,4.8-7.69,5.6L360,565.88s-32.28-29.2-31.88-54.81C328.11,511.07,323,483.87,344.74,473.87Z" transform="translate(-211.54 -138.08)"/><polygon class="cls-4" points="152.58 434.81 159.98 443.81 212.59 429.41 205.99 421.04 152.58 434.81"/><polygon class="cls-9" points="152.58 451.81 162.58 461.81 183.12 447.01 152.58 451.81"/><polygon class="cls-9" points="167.85 467.81 174.32 475.81 201 458.61 193.3 449.01 167.85 467.81"/><polygon class="cls-9" points="182.59 483.82 186.59 491.42 215.79 478.21 206.99 465.41 182.59 483.82"/><polygon class="cls-9" points="192.72 499.95 196.72 510.09 226.59 499.95 219.13 485.82 192.72 499.95"/><polygon class="cls-9" points="201 519.42 204.99 527.42 234.06 519.42 229.26 507.69 201 519.42"/><polygon class="cls-9" points="207.66 537.29 207.66 544.76 239.4 544.76 239.4 530.09 207.66 537.29"/><polygon class="cls-9" points="207.66 554.09 207.66 561.3 239.4 563.96 239.4 554.09 207.66 554.09"/><polygon class="cls-9" points="207.66 570.36 207.66 578.63 234.06 588.5 238.06 574.1 207.66 570.36"/><polygon class="cls-9" points="203.12 586.37 197.79 592.77 223.53 608.5 231.13 597.43 203.12 586.37"/><polygon class="cls-9" points="188.59 604.44 208.99 629.84 219.99 617.14 193.39 599.63 188.59 604.44"/><polygon class="cls-9" points="173.78 618.44 182.19 611.64 202.19 634.64 193.59 643.64 173.78 618.44"/><polygon class="cls-9" points="157.78 628.64 165.78 622.44 185.19 649.24 157.78 628.64"/><path class="cls-4" d="M360.52,642.7l24.8-18.81s33.21,45.88,24,84.55Z" transform="translate(-211.54 -138.08)"/><path class="cls-4" d="M325.71,679.1s39.21-10,62,18l-27.2-39.61S335.31,666.7,325.71,679.1Z" transform="translate(-211.54 -138.08)"/><path class="cls-4" d="M314.91,725l17.74,16,15.2-14.4S338.11,712.31,314.91,725Z" transform="translate(-211.54 -138.08)"/><path class="cls-10" d="M309.84,719.73l5.07,6.18s48.68-22.14,41.34,32.41c0,0,6.87,11.2,9.87-5.51,0,0,7.13-34.9-28.14-40.7C338,712.11,326.38,709.36,309.84,719.73Z" transform="translate(-211.54 -138.08)"/><path class="cls-8" d="M338.28,687.64l-1.23,15.48s40,2.92,37.6,48.53l27.74-27.21L366.71,689Z" transform="translate(-211.54 -138.08)"/><polygon class="cls-8" points="219.99 646.64 219.99 674.91 207.66 667.98 207.66 657.04 219.99 646.64"/><path class="cls-4" d="M450.93,758.72v70.81l11.34,5.6V773.92S455.33,758.72,450.93,758.72Z" transform="translate(-211.54 -138.08)"/><path class="cls-3" d="M483.34,842.33h-13.6V799.11c0-9.52.69-19.17-1.67-28.49-1.9-7.48-5.93-16.2-14.34-17.81,0,0,1.88-14.1,8.54-15.1.62-.09,2.43,1.64,2.88,2a51.88,51.88,0,0,1,6.72,6c15.1,16.09,11.47,40,11.47,60.36Z" transform="translate(-211.54 -138.08)"/><path class="cls-4" d="M489.61,801v42.67h7.2V819.93s-.8-9.07,11.73-10.14l70.15.27v-11.2Z" transform="translate(-211.54 -138.08)"/><path class="cls-9" d="M511.74,815.13l-8,7.46v22.14l28-2.4s25.87-10.67,42.14-27.2Z" transform="translate(-211.54 -138.08)"/><path class="cls-3" d="M524.81,724.44v66.95h45.88v-30c0-3.56,1-7.37-.64-10.7s-4.78-6.89-7.21-9.9c-5.08-6.29-11.65-12.88-20.07-14Z" transform="translate(-211.54 -138.08)"/><path class="cls-4" d="M465.6,698.57s.27,18.67-3.33,32.81c0,0,32.07,12.27,28.94,60h35.2V724.65s-33.13-7.19-41.89-15a46.15,46.15,0,0,0-6-4.43C473.59,702.11,466.63,697.89,465.6,698.57Z" transform="translate(-211.54 -138.08)"/><path class="cls-10" d="M542,726.65c7.3,3.74,12.8,8.1,18.83,13.91,3.48,3.35,7.27,6.71,8.88,11.26,1,3,1,6.22,1,9.38l-.07,30.19h8q0-14.46.07-28.91c0-7.57.74-16.81-4.13-23.29-2.4-4.17-5-8.54-9.22-10.87C558.39,724.47,549.54,727.12,542,726.65Z" transform="translate(-211.54 -138.08)"/><circle class="cls-9" cx="257.8" cy="264.05" r="6.94"/><path class="cls-5" d="M491.21,452.66S487.15,426,472,419.33c0,0,26-15.07,2.7-30.14,0,0,15.74-15.21,36.54-5.07,0,0,20,4.78,35.47,32.53v5.88S506.14,432.66,491.21,452.66Z" transform="translate(-211.54 -138.08)"/><circle class="cls-11" cx="289.41" cy="264.05" r="10.67"/><path class="cls-6" d="M683.28,454.61s49,131.54-52.32,217l6,1.9s106.79-66.44,55-216.92Z" transform="translate(-211.54 -138.08)"/></svg>